<svg width="83" height="32" viewBox="0 0 83 32" fill="none" xmlns="http://www.w3.org/2000/svg">
<g id="intel-3" opacity="0.3" clip-path="url(#clip0_78_2419)">
<g id="Group">
<path id="Vector" d="M0.303711 0.446655H6.24396V6.41655H0.303711V0.446655Z" fill="#202430"/>
<path id="Vector_2" d="M6.09623 31.5514V10.03H0.451904V31.5302H6.09631L6.09623 31.5514ZM43.4714 31.7639V26.495C42.6469 26.495 41.9493 26.4526 41.442 26.3676C40.85 26.2827 40.4061 26.0701 40.1101 25.7727C39.8141 25.4753 39.6239 25.0503 39.5182 24.4767C39.4337 23.9456 39.3914 23.2446 39.3914 22.3948V14.8951H43.4714V10.03H39.3913V1.65935H33.7469V22.4585C33.7469 24.2218 33.895 25.709 34.1909 26.8987C34.4869 28.0672 34.9943 29.0233 35.6919 29.7456C36.3894 30.4679 37.3196 30.9778 38.44 31.2965C39.5816 31.6152 41.0191 31.7639 42.7314 31.7639H43.4714ZM75.773 31.5514V0.00219727H70.1286V31.5514H75.773ZM28.3142 12.1545C26.7499 10.4549 24.5513 9.60507 21.7609 9.60507C20.408 9.60507 19.1607 9.88128 18.0614 10.4336C16.9411 10.986 16.0109 11.7508 15.2499 12.728L14.9539 13.1317V10.03H9.39416V31.5302H14.9961V20.079V20.4827C15.0596 18.4644 15.5458 16.9772 16.4759 16.0211C17.4696 15.0014 18.6744 14.4915 20.0486 14.4915C21.6764 14.4915 22.9236 15.0014 23.7481 15.9787C24.5513 16.956 24.9741 18.3369 24.9741 20.1002V31.5302H30.6607V19.3354C30.6819 16.2761 29.8786 13.8541 28.3142 12.1545ZM67.2112 20.7588C67.2112 19.2079 66.9365 17.7633 66.408 16.4036C65.8583 15.065 65.0973 13.8753 64.146 12.8555C63.1736 11.8358 62.0109 11.0498 60.658 10.4762C59.305 9.90248 57.8041 9.62627 56.1763 9.62627C54.6331 9.62627 53.1744 9.92375 51.8215 10.4974C50.4686 11.0922 49.2847 11.8783 48.2912 12.8768C47.2976 13.8753 46.4943 15.0651 45.9235 16.4249C45.3316 17.7845 45.0567 19.2504 45.0567 20.8013C45.0567 22.3523 45.3317 23.8182 45.8812 25.1778C46.4308 26.5375 47.2131 27.7273 48.1855 28.7259C49.1579 29.7243 50.3629 30.5316 51.7581 31.1053C53.1533 31.7001 54.6965 31.9976 56.3455 31.9976C61.123 31.9976 64.0825 29.8093 65.8583 27.7698L61.7995 24.6679C60.9539 25.6877 58.9245 27.0687 56.3877 27.0687C54.8022 27.0687 53.4916 26.7075 52.498 25.9639C51.5044 25.2416 50.8279 24.2218 50.4685 22.9684L50.4051 22.7771H67.2112V20.7588ZM50.4474 18.783C50.4474 17.2108 52.2443 14.4702 56.1129 14.449C59.9814 14.449 61.7995 17.1896 61.7995 18.7618L50.4474 18.783ZM82.1995 28.832C82.0938 28.5771 81.9459 28.3646 81.7556 28.1735C81.5653 27.9822 81.3539 27.8335 81.1003 27.7273C80.8466 27.6211 80.5718 27.5574 80.2969 27.5574C80.001 27.5574 79.7474 27.6211 79.4937 27.7273C79.24 27.8335 79.0285 27.9822 78.8383 28.1735C78.6481 28.3646 78.5001 28.5771 78.3944 28.832C78.2887 29.0869 78.2253 29.3632 78.2253 29.6394C78.2253 29.9368 78.2887 30.1917 78.3944 30.4467C78.5001 30.7015 78.6481 30.9141 78.8383 31.1053C79.0285 31.2965 79.24 31.4452 79.4937 31.5514C79.7473 31.6577 80.0222 31.7213 80.2969 31.7213C80.5929 31.7213 80.8466 31.6577 81.1003 31.5514C81.3539 31.4452 81.5653 31.2965 81.7556 31.1053C81.9459 30.9141 82.0938 30.7016 82.1996 30.4467C82.3054 30.1918 82.3687 29.9156 82.3687 29.6393C82.3687 29.363 82.3052 29.0869 82.1996 28.832H82.1995ZM81.8613 30.3192C81.7768 30.5316 81.6499 30.7228 81.5019 30.8716C81.3539 31.0203 81.1637 31.1477 80.9523 31.2328C80.7409 31.3177 80.5295 31.3602 80.2758 31.3602C80.0433 31.3602 79.8107 31.3177 79.5994 31.2328C79.3881 31.1478 79.1977 31.0203 79.0497 30.8715C78.9018 30.7228 78.7749 30.5316 78.6903 30.3192C78.6058 30.1067 78.5635 29.8943 78.5635 29.6394C78.5635 29.4056 78.6058 29.172 78.6904 28.9595C78.7749 28.7471 78.9018 28.5558 79.0497 28.4071C79.1977 28.2584 79.388 28.1309 79.5994 28.0459C79.8107 27.9609 80.0221 27.9185 80.2758 27.9185C80.5083 27.9185 80.7409 27.961 80.9523 28.046C81.1637 28.1309 81.3539 28.2584 81.5019 28.4072C81.6499 28.5558 81.7768 28.747 81.8613 28.9595C81.9459 29.1721 81.9881 29.3844 81.9881 29.6394C81.9881 29.8943 81.9459 30.1067 81.8613 30.3192ZM80.6775 29.8305C80.8465 29.8093 80.9734 29.7456 81.0791 29.6394C81.1848 29.5331 81.2482 29.3844 81.2482 29.172C81.2482 28.9382 81.1848 28.7683 81.0368 28.6408C80.91 28.5133 80.6775 28.4496 80.4026 28.4496H79.4725V30.8503H79.9165V29.873H80.2335L80.8254 30.8503H81.2905L80.6775 29.8305ZM80.4449 29.4694H79.9163V28.7895H80.4448C80.5083 28.7895 80.5717 28.8107 80.6351 28.832C80.6986 28.8533 80.7408 28.8958 80.7619 28.9382C80.8043 28.9807 80.8043 29.0445 80.8043 29.1294C80.8043 29.2144 80.7831 29.2782 80.7619 29.3207C80.7197 29.3632 80.6774 29.4056 80.6351 29.4269C80.5717 29.4481 80.5083 29.4694 80.4448 29.4694H80.4449Z" fill="#202430"/>
</g>
</g>
<defs>
<clipPath id="clip0_78_2419">
<rect width="82.0647" height="32" fill="white" transform="translate(0.303711)"/>
</clipPath>
</defs>
</svg>
