<svg width="109" height="32" viewBox="0 0 109 32" fill="none" xmlns="http://www.w3.org/2000/svg">
<g id="talkit 1" opacity="0.3">
<path id="Vector" d="M11.6361 31.6076C11.0604 31.6076 10.772 31.3595 10.772 30.8611V30.7046C10.772 30.3916 11.0353 29.9196 11.5607 29.2912C12.1112 28.6374 12.3864 27.9825 12.3864 27.3287V6.68098H10.3963C9.82064 6.68098 9.29528 6.9302 8.81898 7.42743C8.37344 7.91687 8.00607 8.47289 7.72996 9.07564C7.47865 9.65113 7.1675 10.1881 6.79173 10.6853C6.41596 11.1826 6.04019 11.4318 5.66442 11.4318H5.02656C4.32528 11.4318 4.01174 11.0513 4.08713 10.2928L4.83868 4.95332C4.91287 4.14306 5.33891 3.73733 6.11558 3.73733H25.4187C26.1691 3.73733 26.5951 4.14306 26.6945 4.95332L27.4843 10.3314C27.5334 10.6721 27.4711 10.9466 27.2952 11.1561C27.1205 11.3391 26.8704 11.4306 26.5449 11.4306H25.9058C25.5312 11.4306 25.1555 11.1826 24.7797 10.6841C24.4039 10.1857 24.0784 9.65113 23.8032 9.07564C23.5279 8.47366 23.1522 7.92466 22.6771 7.42623C22.2008 6.9302 21.6754 6.68098 21.0998 6.68098H19.1467V27.3287C19.1467 27.9825 19.41 28.6374 19.9354 29.2912C20.4858 29.9196 20.7611 30.3904 20.7611 30.7046V30.8611C20.7611 31.3595 20.4619 31.6076 19.86 31.6076H11.6361ZM43.4306 27.3287C43.506 27.9572 43.6437 28.4677 43.8435 28.8601C44.0697 29.2261 44.2815 29.4621 44.4826 29.5669C44.7076 29.6716 44.9074 29.8016 45.0833 29.9594C45.258 30.1159 45.3466 30.3121 45.3466 30.5481C45.3466 31.4113 43.9321 31.8435 41.103 31.8435C39.9506 31.8435 39.0865 31.6991 38.5109 31.4101C37.9604 31.1236 37.6098 30.6396 37.4602 29.9594C36.5076 31.3198 34.9183 32 32.69 32C30.5874 32 28.8725 31.4896 27.5441 30.4686C26.2433 29.4489 25.5935 27.9704 25.5935 26.0333C25.5935 24.1491 26.2433 22.6839 27.5441 21.6364C28.8474 20.5649 30.4498 20.028 32.3526 20.028C33.8293 20.028 35.0931 20.3542 36.1462 21.0092V20.8912C35.8949 18.3003 35.6077 16.5474 35.281 15.6299C34.9818 14.7149 34.3798 14.2574 33.4787 14.2574C32.9031 14.2574 32.4399 14.5319 32.0893 15.0809C31.7354 15.6384 31.4693 16.2476 31.3006 16.8869C31.1453 17.5517 30.8366 18.1703 30.3995 18.6928C29.9483 19.243 29.3476 19.5175 28.5972 19.5175C27.8206 19.5175 27.1827 19.2815 26.6825 18.8108C26.2062 18.34 25.968 17.7248 25.968 16.9663C25.968 15.4481 26.6945 14.3092 28.1461 13.5507C29.5977 12.7657 31.376 12.3733 33.4787 12.3733C35.9822 12.3733 38.0478 13.092 39.6753 14.5319C41.3268 15.9454 42.3045 17.8681 42.6049 20.3025L43.4306 27.3287ZM34.7556 29.9979C35.3312 29.9979 35.7943 29.7101 36.145 29.1346C36.5208 28.5592 36.7074 27.9042 36.7074 27.1722L36.5579 25.3663C36.3077 23.1944 35.5323 22.1084 34.2302 22.1084C33.6546 22.1084 33.1915 22.3564 32.8408 22.8548C32.4902 23.3244 32.3143 23.9661 32.3143 24.7776C32.3143 26.2428 32.5273 27.4864 32.9533 28.5062C33.4033 29.5006 34.0052 29.9991 34.7556 29.9991V29.9979ZM46.9909 31.6076C46.4141 31.6076 46.1269 31.3595 46.1269 30.8611V30.7046C46.1269 30.3916 46.3638 29.9196 46.8401 29.2912C47.3403 28.6374 47.5905 27.9825 47.5905 27.3287V9.38987C47.5905 8.70964 47.3403 8.05469 46.8401 7.42743C46.3638 6.77248 46.1269 6.31498 46.1269 6.05252V5.89601C46.1269 5.60706 46.4021 5.30607 46.9526 4.99305L52.6227 2.08791C53.1492 1.85314 53.5621 1.8399 53.8625 2.04939C54.188 2.23239 54.3508 2.52013 54.3508 2.91262V27.3287C54.3508 27.9825 54.626 28.6374 55.1765 29.2912C55.727 29.9196 56.0022 30.3904 56.0022 30.7046V30.8611C56.0022 31.3595 55.7031 31.6076 55.1023 31.6076H46.9909ZM77.5864 28.3099C77.712 28.4929 78.0878 28.8337 78.7137 29.3309C79.3647 29.8281 79.6902 30.2856 79.6902 30.7046V30.8611C79.6902 31.3595 79.403 31.6076 78.8262 31.6076H70.9398C70.3641 31.6076 70.0757 31.3463 70.0757 30.8226V30.7046C70.0757 30.3916 70.2636 30.0111 70.6394 29.5657C71.0151 29.0961 71.0905 28.6759 70.8644 28.3099L67.5602 23.1679L65.6813 24.9738V27.3287C65.6813 27.9825 65.9566 28.6374 66.5083 29.2912C67.0839 29.9196 67.3723 30.3904 67.3723 30.7046V30.8611C67.3723 31.3595 67.0719 31.6076 66.4712 31.6076H58.3586C57.7578 31.6076 57.4575 31.3595 57.4575 30.8611V30.7046C57.4575 30.3916 57.7088 29.9196 58.209 29.2912C58.7092 28.6374 58.9605 27.9825 58.9605 27.3287V9.38987C58.9605 8.70964 58.659 8.05469 58.0582 7.42743C57.4575 6.77248 57.1571 6.31498 57.1571 6.05252V5.89601C57.1571 5.60706 57.4323 5.30607 57.9828 4.99305L63.994 2.08791C64.5193 1.87843 64.9322 1.86639 65.2326 2.04939C65.533 2.23239 65.6837 2.52013 65.6837 2.91262V21.5582L70.7531 17.0049C71.0534 16.7954 71.1659 16.5341 71.0917 16.2199C71.0459 15.9149 70.9157 15.6291 70.716 15.3952C70.5204 15.1042 70.3201 14.8164 70.1152 14.5319C69.9142 14.2189 69.8148 13.942 69.8148 13.7072V13.5507C69.8148 13.027 70.102 12.7657 70.6777 12.7657H76.6122C77.1867 12.7657 77.4751 13.0138 77.4751 13.5122V13.6687C77.4751 13.9817 77.3003 14.3092 76.9497 14.6499C76.5991 14.963 76.0988 15.3434 75.4478 15.7877C74.9132 16.1346 74.4105 16.5291 73.9459 16.9663L71.5417 19.2815L77.5864 28.3099ZM85.1592 10.4493C83.8823 10.4493 82.8436 10.0833 82.0418 9.35014C81.24 8.59165 80.8402 7.64896 80.8402 6.52447C80.8402 5.39878 81.2412 4.46933 82.0418 3.73733C82.8436 2.97884 83.8823 2.59839 85.1592 2.59839C86.411 2.59839 87.4378 2.97763 88.2384 3.73733C89.0402 4.46933 89.4399 5.39878 89.4399 6.52447C89.4399 7.64896 89.0402 8.59165 88.2384 9.35014C87.4366 10.0833 86.411 10.4493 85.1592 10.4493ZM81.1406 31.6076C80.5399 31.6076 80.2395 31.3595 80.2395 30.8611V30.7046C80.2395 30.3916 80.4908 29.9064 80.991 29.2526C81.4913 28.5989 81.7414 27.9439 81.7414 27.2902V19.8317C81.7414 19.1515 81.4913 18.4965 80.991 17.8693C80.4896 17.2143 80.2395 16.7689 80.2395 16.5329V16.3764C80.2395 16.0634 80.5267 15.7624 81.1035 15.4734L86.7736 12.5695C87.3002 12.3335 87.713 12.307 88.0134 12.4912C88.3138 12.6742 88.4646 12.9752 88.4646 13.3942V27.2902C88.4646 27.9439 88.7398 28.5977 89.2903 29.2526C89.866 29.9064 90.1544 30.3904 90.1544 30.7046V30.8611C90.1544 31.3583 89.8408 31.6076 89.2149 31.6076H81.1406ZM99.563 32C97.6602 32 96.1595 31.3716 95.0573 30.1159C93.9803 28.8601 93.4418 27.0675 93.4418 24.7378V15.4349H92.0153C91.7806 15.4404 91.5526 15.3561 91.3774 15.1989C91.2252 15.0109 91.145 14.7743 91.1512 14.5319V13.6687C91.1512 13.0667 91.4396 12.7657 92.0153 12.7657H92.7285C93.881 12.7657 94.8706 12.4118 95.6964 11.7063C96.5221 10.9719 97.0607 10.0051 97.3108 8.80114C97.4364 8.12091 97.7739 7.78019 98.3244 7.78019H99.1884C99.8646 7.78019 100.202 8.12091 100.202 8.80114V12.7657H104.071C104.321 12.7657 104.521 12.8572 104.672 13.0402C104.847 13.1968 104.935 13.4062 104.935 13.6687V14.5319C104.937 14.6551 104.915 14.7776 104.87 14.8921C104.825 15.0066 104.758 15.1109 104.672 15.1989C104.594 15.2783 104.5 15.3402 104.396 15.3809C104.293 15.4215 104.182 15.4399 104.071 15.4349H100.202V24.8558C100.202 25.5096 100.365 26.0333 100.69 26.4258C101.016 26.793 101.417 26.976 101.892 26.976C102.969 26.976 103.795 26.492 104.371 25.5228C104.546 25.288 104.746 25.1568 104.972 25.1303C105.197 25.0785 105.385 25.1183 105.535 25.2483C105.711 25.3795 105.798 25.5613 105.798 25.7985C105.798 27.4467 105.235 28.8987 104.108 30.1556C103.007 31.3848 101.492 32 99.563 32Z" fill="#202430"/>
</g>
</svg>
