<svg width="183" height="24" viewBox="0 0 183 24" fill="none" xmlns="http://www.w3.org/2000/svg">
<g id="tesla-9 1" opacity="0.3" clip-path="url(#clip0_78_2412)">
<g id="TESLA">
<path id="Vector" d="M156.203 9.52357V23.986H160.791V14.3444H177.571V23.986H182.16V9.52357H156.203ZM160.267 4.83484H177.965C180.456 4.37257 182.225 2.12727 182.75 0.0140381H155.482C156.006 2.12727 157.842 4.30654 160.267 4.83484ZM142.241 23.986C144.535 22.9954 145.781 21.2784 146.305 19.2973H125.657V0.0800765H121.004V23.986H142.241ZM86.5909 4.7688H102.978C105.469 4.04238 107.501 2.12727 108.025 0.0800765H82.0681V14.2123H103.306V19.1652H86.6564C84.0345 19.8916 81.8059 21.6746 80.6916 23.986H107.894V9.52357H86.6564L86.5909 4.7688ZM46.2133 4.83484H63.9113C66.4021 4.37257 68.2375 2.12727 68.6963 0.0140381H41.3628C41.8872 2.12727 43.7225 4.30654 46.2133 4.83484ZM46.2133 14.2783H63.9113C66.4021 13.8161 68.2375 11.5708 68.6963 9.45753H41.3628C41.8872 11.5708 43.7225 13.75 46.2133 14.2783ZM46.2133 23.986H63.9113C66.4021 23.5237 68.2375 21.2784 68.6963 19.1652H41.3628C41.8872 21.2784 43.7225 23.5237 46.2133 23.986Z" fill="#202430"/>
<g id="Group">
<path id="Vector_2" d="M0.133057 0.0800765C0.65744 2.19331 2.49278 4.30654 4.91806 4.83484H12.3905L12.7838 4.96692V23.9199H17.4377V4.96692L17.831 4.83484H25.3035C27.7943 4.17446 29.5641 2.19331 30.0885 0.0800765V0.0140381L0.133057 0.0800765Z" fill="#202430"/>
</g>
</g>
</g>
<defs>
<clipPath id="clip0_78_2412">
<rect width="182.682" height="24" fill="white" transform="translate(0.133057)"/>
</clipPath>
</defs>
</svg>
