<svg width="154" height="40" viewBox="0 0 154 40" fill="none" xmlns="http://www.w3.org/2000/svg">
<g id="vodafone-2017-logo" opacity="0.3">
<path id="Vector" d="M37.5616 20C37.5616 25.0219 35.5829 29.838 32.0608 33.389C28.5387 36.9399 23.7618 38.9349 18.7808 38.9349C13.7998 38.9349 9.02284 36.9399 5.50076 33.389C1.97868 29.838 0 25.0219 0 20C0 14.9782 1.97868 10.162 5.50076 6.61107C9.02284 3.0601 13.7998 1.06519 18.7808 1.06519C23.7618 1.06519 28.5387 3.0601 32.0608 6.61107C35.5829 10.162 37.5616 14.9782 37.5616 20Z" fill="#202430"/>
<path id="Vector_2" d="M18.9352 30.5529C13.7743 30.5713 8.40448 26.1376 8.37722 19.0015C8.36814 14.2838 10.894 9.74935 14.1105 7.05615C17.2633 4.42708 21.5701 2.7507 25.4771 2.73237C25.933 2.71507 26.389 2.76444 26.8309 2.87894C25.1156 3.26011 23.5779 4.21351 22.4666 5.58496C21.3553 6.9564 20.7353 8.66569 20.7069 10.4364C20.7069 10.5646 20.7069 10.6929 20.7251 10.7479C26.4493 12.1494 29.0388 15.6304 29.057 20.4489C29.0534 21.7832 28.7885 23.1038 28.2773 24.3346C27.7661 25.5654 27.0189 26.6823 26.0784 27.6212C25.1379 28.5601 24.0227 29.3023 22.7968 29.8055C21.571 30.3086 20.2586 30.5626 18.9352 30.5529Z" fill="white"/>
<path id="Vector_3" d="M49.6913 27.8414L43.958 14.0182H47.7105L51.2995 23.1971L54.7704 14.0182H58.3502L52.7714 27.8414H49.6913ZM68.3358 20.8611C68.3399 20.3051 68.2727 19.7509 68.1359 19.2122C68.0202 18.7355 67.8168 18.285 67.5362 17.8839C67.2833 17.5204 66.9546 17.2171 66.5731 16.9954C66.166 16.7637 65.7047 16.6467 65.2374 16.6564C64.7701 16.6462 64.3087 16.7633 63.9018 16.9954C63.5163 17.2151 63.1841 17.5186 62.9296 17.8839C62.6512 18.2884 62.4508 18.7421 62.339 19.2214C62.2029 19.7571 62.1357 20.3082 62.1391 20.8611C62.1345 21.4172 62.2017 21.9714 62.339 22.51C62.4534 22.9853 62.647 23.4375 62.9114 23.8474C63.1628 24.2339 63.507 24.55 63.9121 24.7662C64.3172 24.9824 64.77 25.0918 65.2283 25.0841C65.6865 25.0982 66.1403 24.9915 66.5451 24.7746C66.9498 24.5577 67.2914 24.2381 67.5362 23.8474C67.8128 23.4442 68.0159 22.9944 68.1359 22.5192C68.2739 21.9776 68.3411 21.4202 68.3358 20.8611ZM71.7975 20.8703C71.7977 21.7717 71.6597 22.6678 71.3887 23.5268C71.1243 24.3743 70.7086 25.166 70.162 25.8628C69.5759 26.6061 68.8251 27.2004 67.9698 27.5982C67.1146 27.9959 66.1787 28.1859 65.2374 28.1529C64.2951 28.1837 63.3587 27.9928 62.5023 27.5953C61.6459 27.1978 60.8932 26.6046 60.3037 25.8628C59.7583 25.1652 59.3427 24.3738 59.0771 23.5268C58.5372 21.807 58.5372 19.961 59.0771 18.2412C59.343 17.4027 59.7587 16.6204 60.3037 15.9327C60.8583 15.2447 61.5563 14.688 62.3481 14.3022C63.2501 13.871 64.2394 13.6577 65.2374 13.6792C66.1728 13.6532 67.1018 13.8426 67.9536 14.2331C68.8054 14.6236 69.5576 15.2049 70.153 15.9327C70.6981 16.6106 71.1161 17.3801 71.3887 18.2412C71.6612 19.1023 71.7975 19.9817 71.7975 20.8703ZM82.3918 17.0686C81.7899 16.813 81.1458 16.6732 80.4928 16.6564C79.9824 16.6315 79.4738 16.7358 79.0136 16.9598C78.5534 17.1838 78.156 17.5204 77.8579 17.9389C77.5709 18.341 77.3557 18.7905 77.2219 19.2672C77.0809 19.7583 77.0105 20.2674 77.0129 20.7787C77.0098 21.3336 77.0707 21.8869 77.1946 22.4276C77.3038 22.9159 77.4976 23.3811 77.767 23.8016C78.0124 24.1887 78.3417 24.5144 78.7301 24.7543C79.1118 24.9925 79.5751 25.1208 80.093 25.1208C80.5612 25.1103 81.0198 24.9845 81.4287 24.7543C81.8205 24.5681 82.1538 24.2765 82.3918 23.9116V17.0686ZM82.6735 27.8414L82.5372 26.7788C82.1752 27.1753 81.744 27.5014 81.2651 27.7407C80.5707 28.0402 79.8186 28.1792 79.0639 28.1475C78.3092 28.1158 77.5712 27.9142 76.9039 27.5575C76.1884 27.1606 75.5681 26.6102 75.0867 25.9452C74.5782 25.2459 74.1968 24.4612 73.96 23.6276C73.7048 22.7343 73.5763 21.8091 73.5784 20.8794C73.5784 19.9725 73.7056 19.0931 73.9691 18.232C74.2254 17.396 74.6353 16.616 75.1775 15.9327C75.7632 15.2007 76.5097 14.616 77.3581 14.2249C78.2065 13.8338 79.1335 13.647 80.0658 13.6792C80.7927 13.6792 81.565 13.8167 82.3918 14.0823V8.72339H85.9172V27.8414H82.6735ZM95.8391 21.3558C95.0618 21.4083 94.2882 21.5061 93.5222 21.6489C92.7589 21.8046 92.2319 22.0611 91.9321 22.4367C91.6514 22.7798 91.4973 23.2103 91.496 23.6551C91.496 24.1131 91.6595 24.4795 91.9957 24.7543C92.4027 25.0548 92.9004 25.2037 93.404 25.1757C93.8583 25.1757 94.3126 25.0841 94.7397 24.8918C95.1436 24.714 95.5152 24.4694 95.8391 24.1681V21.3558ZM96.1208 27.8231L95.9845 26.7971C95.5815 27.2371 95.0843 27.5786 94.5307 27.7956C93.3664 28.2602 92.0739 28.2798 90.8963 27.8506C90.0508 27.5664 89.3182 27.0161 88.8062 26.2806C88.2942 25.5451 88.03 24.6633 88.0524 23.765C88.0407 23.16 88.1683 22.5606 88.4253 22.0138C88.6823 21.467 89.0616 20.9878 89.5334 20.6138C90.0102 20.2398 90.5401 19.9403 91.1053 19.7252C92.1874 19.3383 93.3141 19.092 94.458 18.9924L95.8209 18.8641V18.6626C95.8209 17.9023 95.621 17.3618 95.2303 17.032C94.7648 16.6832 94.192 16.5112 93.613 16.5465C92.5832 16.5517 91.5803 16.8781 90.7418 17.4809C90.5586 17.5982 90.3826 17.7267 90.2149 17.8656L89.0428 15.3739C89.605 14.9439 90.2224 14.5926 90.8781 14.3296C92.586 13.6139 94.4816 13.4914 96.2661 13.9815C96.8797 14.1749 97.4412 14.5075 97.9074 14.9537C98.3736 15.3999 98.7322 15.9479 98.9556 16.5557C99.2287 17.3219 99.3581 18.1326 99.3372 18.9466V27.8323L96.1208 27.8231ZM110.231 11.8746C109.603 11.5912 108.92 11.4534 108.232 11.4716C107.751 11.4716 107.333 11.6181 107.006 11.9204C106.67 12.2136 106.506 12.6991 106.506 13.3678V14.0182H109.468V16.8854H106.533V27.8414H103.008V16.8854H101.191V14.0182H103.008V13.2853C103.008 12.3784 103.126 11.6181 103.353 10.9952C103.539 10.4372 103.851 9.93098 104.267 9.51727C104.682 9.10356 105.187 8.79397 105.743 8.61347C107.362 8.17757 109.077 8.28366 110.631 8.91576L110.231 11.8746ZM119.844 20.8611C119.847 20.3052 119.78 19.7512 119.644 19.2122C119.529 18.7355 119.325 18.285 119.045 17.8839C118.792 17.5204 118.463 17.2171 118.082 16.9954C117.675 16.7637 117.213 16.6467 116.746 16.6564C116.279 16.6462 115.817 16.7633 115.41 16.9954C115.026 17.2165 114.694 17.5198 114.438 17.8839C114.159 18.2893 113.956 18.7425 113.838 19.2214C113.562 20.303 113.562 21.4376 113.838 22.5192C113.958 22.9912 114.155 23.4401 114.42 23.8474C114.668 24.2253 115.001 24.5391 115.392 24.7635C115.808 24.9894 116.274 25.103 116.746 25.0933C117.203 25.1048 117.656 24.9959 118.059 24.7775C118.462 24.559 118.802 24.2385 119.045 23.8474C119.321 23.4442 119.524 22.9944 119.644 22.5192C119.781 21.9773 119.848 21.4201 119.844 20.8611ZM123.306 20.8703C123.308 21.7719 123.17 22.6682 122.897 23.5268C122.634 24.375 122.219 25.1669 121.671 25.8628C121.084 26.6061 120.334 27.2004 119.478 27.5982C118.623 27.9959 117.687 28.1859 116.746 28.1529C115.804 28.1837 114.867 27.9928 114.011 27.5953C113.154 27.1978 112.402 26.6046 111.812 25.8628C111.267 25.1652 110.851 24.3738 110.586 23.5268C110.039 21.8081 110.039 19.9599 110.586 18.2412C110.849 17.4034 111.261 16.6211 111.803 15.9327C112.36 15.2436 113.062 14.6868 113.857 14.3022C114.759 13.871 115.748 13.6577 116.746 13.6792C117.681 13.6532 118.61 13.8426 119.462 14.2331C120.314 14.6236 121.066 15.2049 121.662 15.9327C122.207 16.6106 122.625 17.3801 122.897 18.2412C123.17 19.1023 123.306 19.9817 123.306 20.8703ZM134.255 27.8414V19.9634C134.309 19.0978 134.079 18.2382 133.601 17.5175C133.388 17.2377 133.112 17.0134 132.796 16.8636C132.48 16.7137 132.132 16.6427 131.783 16.6564C131.244 16.6502 130.715 16.7996 130.257 17.087C129.818 17.3546 129.412 17.6744 129.048 18.0397V27.8414H125.523V14.0182H128.74L128.903 15.1175C130.012 14.1852 131.411 13.676 132.855 13.6792C133.582 13.6792 134.246 13.7892 134.854 14.009C135.448 14.2254 135.982 14.5837 136.408 15.0533C136.853 15.5297 137.19 16.1526 137.426 16.9129C137.662 17.6824 137.78 18.5985 137.78 19.6611V27.8414H134.255ZM148.747 19.2672C148.721 18.8373 148.619 18.4154 148.447 18.0213C148.307 17.6966 148.103 17.4038 147.847 17.1603C147.407 16.7494 146.83 16.5205 146.23 16.519C145.586 16.5307 144.967 16.7744 144.486 17.2061C144.195 17.4669 143.96 17.7837 143.793 18.1376C143.626 18.4916 143.531 18.8756 143.513 19.2672H148.747ZM143.432 21.823C143.504 22.9864 143.868 23.8291 144.522 24.3421C145.242 24.882 146.124 25.1568 147.021 25.1208C147.859 25.1197 148.69 24.9645 149.474 24.6627C149.761 24.5479 150.041 24.4132 150.31 24.2597C150.493 24.1545 150.664 24.0285 150.819 23.8841L151.763 26.7788C151.229 27.1435 150.644 27.4274 150.028 27.6216C148.903 27.9694 147.734 28.1484 146.557 28.1529C145.691 28.156 144.831 28.0104 144.013 27.7224C143.219 27.4429 142.496 26.9893 141.896 26.3941C141.261 25.753 140.766 24.9855 140.442 24.1406C140.058 23.1171 139.873 22.0285 139.897 20.9344C139.897 19.7618 140.07 18.7359 140.397 17.8381C140.804 16.6074 141.59 15.54 142.641 14.7918C143.692 14.0436 144.953 13.6538 146.239 13.6792C147.067 13.6709 147.89 13.8169 148.665 14.1098C149.401 14.3938 150.037 14.8426 150.573 15.4381C151.118 16.0427 151.545 16.8213 151.854 17.7832C152.172 18.7359 152.327 19.8718 152.327 21.1909V21.823H143.432Z" fill="#202430"/>
</g>
</svg>
