<svg width="24" height="24" viewBox="0 0 24 24" fill="none" xmlns="http://www.w3.org/2000/svg">
<g id="Name=Design" clip-path="url(#clip0_51_836)">
<path id="Vector" d="M3 21.0001H7L20 8.00006C20.5304 7.46963 20.8284 6.7502 20.8284 6.00006C20.8284 5.24991 20.5304 4.53049 20 4.00006C19.4696 3.46962 18.7501 3.17163 18 3.17163C17.2499 3.17163 16.5304 3.46962 16 4.00006L3 17.0001V21.0001Z" stroke="#25324B" stroke-width="2" stroke-linecap="round" stroke-linejoin="round"/>
<path id="Vector_2" d="M14.5 5.5L18.5 9.5" stroke="#25324B" stroke-width="2" stroke-linecap="round" stroke-linejoin="round"/>
<path id="Vector_3" d="M12 8L7 3L3 7L8 12" stroke="#25324B" stroke-width="2" stroke-linecap="round" stroke-linejoin="round"/>
<path id="Vector_4" d="M7 8L5.5 9.5" stroke="#25324B" stroke-width="2" stroke-linecap="round" stroke-linejoin="round"/>
<path id="Vector_5" d="M16 12L21 17L17 21L12 16" stroke="#25324B" stroke-width="2" stroke-linecap="round" stroke-linejoin="round"/>
<path id="Vector_6" d="M16 17L14.5 18.5" stroke="#25324B" stroke-width="2" stroke-linecap="round" stroke-linejoin="round"/>
</g>
<defs>
<clipPath id="clip0_51_836">
<rect width="24" height="24" fill="white"/>
</clipPath>
</defs>
</svg>
