<svg width="42" height="42" viewBox="0 0 42 42" fill="none" xmlns="http://www.w3.org/2000/svg">
<g id="Group">
<path id="Vector" d="M39.9382 4.19818C39.2534 3.53083 38.348 3.17754 37.3926 3.20161C35.5048 3.25028 33.969 4.85045 33.969 6.7689V15.6677C32.7321 15.2325 31.2986 15.5084 30.3113 16.4959L21.5413 25.2658C21.3447 25.4624 21.1647 25.6712 21.0002 25.8894C20.8356 25.6711 20.6555 25.4624 20.459 25.2658L11.6891 16.4959C10.7018 15.5084 9.26827 15.2325 8.03131 15.6676V6.71609C8.03131 5.75983 7.65412 4.8656 6.96919 4.19818C6.28442 3.53083 5.37957 3.17739 4.42362 3.20161C2.53587 3.25028 1 4.85045 1 6.7689V19.9112C1 21.11 1.33907 22.279 1.98048 23.2917L8.44014 33.4904C9.03319 34.4267 9.34671 35.5075 9.34671 36.6158V39.8278C9.34671 40.475 9.8714 40.9996 10.5186 40.9996H31.4819C32.1291 40.9996 32.6538 40.475 32.6538 39.8278V36.6158C32.6538 35.5074 32.9672 34.4267 33.5603 33.4904L40.0199 23.2918C40.6613 22.279 41.0003 21.11 41.0003 19.9112V6.71609C41.0003 5.75991 40.6231 4.86568 39.9382 4.19818ZM10.4202 32.2363L3.96049 22.0375C3.55697 21.4006 3.34377 20.6653 3.34377 19.9112V6.7689C3.34377 6.11007 3.85526 5.56084 4.48401 5.54467C4.80323 5.53694 5.10527 5.65436 5.33347 5.87671C5.56176 6.09921 5.68754 6.39734 5.68754 6.71609V19.0209C5.68754 19.0535 5.6898 19.0854 5.69238 19.1173C5.72504 19.9719 6.06621 20.8167 6.71723 21.4678L10.9917 25.7423C11.4493 26.1999 12.1913 26.1999 12.649 25.7423C13.1067 25.2846 13.1067 24.5426 12.649 24.085L8.37451 19.8105C7.91763 19.3535 7.91763 18.6101 8.37451 18.1532C8.83155 17.6963 9.57491 17.6963 10.0319 18.1532L18.8016 26.923C19.4637 27.5852 19.8283 28.4689 19.8283 29.4116V38.6559H11.6904V36.6158C11.6904 35.0627 11.2512 33.5483 10.4202 32.2363ZM38.6566 19.9112C38.6566 20.6653 38.4433 21.4006 38.0397 22.0375L31.5802 32.2363C30.7491 33.5483 30.3099 35.0627 30.3099 36.6158V38.6559H22.172V29.4116C22.172 28.4689 22.5367 27.5852 23.1986 26.923L31.9685 18.1531C32.4256 17.6963 33.1689 17.6963 33.6258 18.1531C34.0805 18.5896 34.0805 19.3742 33.6255 19.8107L29.3513 24.0877C28.8939 24.5455 28.8941 25.2875 29.3519 25.745C29.8095 26.2024 30.5515 26.2023 31.0092 25.7444L35.2831 21.4678C35.9293 20.8216 36.2919 19.968 36.311 19.0572C36.3114 19.045 36.3128 19.0331 36.3128 19.0209V6.7689C36.3128 6.11007 36.8243 5.56084 37.453 5.54467C37.7706 5.536 38.0742 5.65436 38.3025 5.87671C38.5308 6.09929 38.6566 6.39741 38.6566 6.71617V19.9112Z" fill="#4640DE" stroke="#4640DE" stroke-width="0.5"/>
<path id="Vector_2" d="M12.8338 11.3305C12.8839 11.3849 13.0564 11.5549 16.3399 14.7566C18.0524 16.4266 19.992 18.3179 20.1482 18.4754C20.3689 18.705 20.6738 18.8352 20.993 18.8352C21.3166 18.8353 21.6257 18.7014 21.8471 18.4659C22.0141 18.2939 23.8073 16.5484 25.3903 15.0074C28.1619 12.3094 29.0425 11.4503 29.1527 11.3307C29.1781 11.3033 29.2019 11.2748 29.2241 11.2455C33.0122 6.43712 29.5623 1.03856 24.6727 1.01536C23.3457 1.03583 22.087 1.49146 20.9811 2.34349C18.1334 0.188477 15.0002 0.887779 13.146 2.60232C10.6446 4.88742 10.5206 8.70386 12.7995 11.2916C12.8107 11.3048 12.8221 11.3178 12.8338 11.3305ZM14.7373 4.32312C15.9306 3.21944 18.0698 2.66568 20.1703 4.73711C20.3931 4.95672 20.6956 5.07789 21.0071 5.07445C21.3199 5.0707 21.6182 4.94211 21.8356 4.71726C23.1364 3.37194 25.3851 2.67279 27.2487 4.31617C28.4665 5.39016 29.2331 7.45752 27.4089 9.7627C27.1145 10.0582 25.2589 11.8646 23.7554 13.3281C22.4286 14.6197 21.5514 15.474 20.9918 16.0206C20.1937 15.2394 15.165 10.3402 14.5622 9.7459C13.3699 8.30253 12.9199 6.00384 14.7373 4.32312Z" fill="#4640DE" stroke="#4640DE" stroke-width="0.5"/>
</g>
</svg>
